<?xml version="1.0" encoding="UTF-8"?>
<svg xmlns="http://www.w3.org/2000/svg" width="1400" height="420" viewBox="0 0 1400 420">
  <defs>
    <filter id="shadow" x="-4%" y="-4%" width="112%" height="112%">
      <feDropShadow dx="2" dy="3" stdDeviation="4" flood-color="#00000018"/>
    </filter>
    <marker id="arrowhead" markerWidth="14" markerHeight="10" refX="14" refY="5" orient="auto">
      <polygon points="0 0, 14 5, 0 10" fill="#1976D2"/>
    </marker>
  </defs>

  <!-- 背景 -->
  <rect width="1400" height="420" fill="#FFFFFF"/>

  <!-- 标题 -->
  <text x="700" y="32" text-anchor="middle" font-family="SimHei, Microsoft YaHei, sans-serif"
        font-size="24" font-weight="bold" fill="#333333">机器学习多人脸识别流程</text>
  <text x="700" y="55" text-anchor="middle" font-family="Arial, sans-serif"
        font-size="12" fill="#757575" font-style="italic">Multi-Face Recognition Pipeline based on Machine Learning</text>
  <line x1="500" y1="65" x2="900" y2="65" stroke="#2196F3" stroke-width="1.5" opacity="0.3"/>
  <rect x="53" y="88" width="210" height="250" rx="12" ry="12"
        fill="#000000" opacity="0.08" filter="url(#shadow)"/>
  <rect x="50" y="85" width="210" height="250" rx="12" ry="12"
        fill="#66BB6A" opacity="0.95"/>
  <rect x="50" y="85" width="210" height="6" rx="3" ry="3" fill="white" opacity="0.25"/>
  <circle cx="155" cy="125" r="20" fill="white" opacity="0.2"/>
  <text x="155" y="132" text-anchor="middle"
        font-family="SimHei, Microsoft YaHei, sans-serif" font-size="20" font-weight="bold" fill="#FFFFFF">01</text>
  <text x="155" y="167" text-anchor="middle"
        font-family="SimHei, Microsoft YaHei, sans-serif" font-size="16" font-weight="bold" fill="#FFFFFF">图像数据采集</text>
  <text x="155" y="187" text-anchor="middle"
        font-family="Arial, sans-serif" font-size="10" fill="#E3F2FD" font-style="italic">Image Data Collection</text>
  <line x1="75" y1="203" x2="235" y2="203"
        stroke="white" stroke-opacity="0.25" stroke-width="1"/>
  <text x="155" y="227" text-anchor="middle"
        font-family="SimSun, SimHei, Microsoft YaHei, sans-serif" font-size="12" fill="white" opacity="0.92">- 原始人脸图像</text>
  <text x="155" y="253" text-anchor="middle"
        font-family="SimSun, SimHei, Microsoft YaHei, sans-serif" font-size="12" fill="white" opacity="0.92">- 多角度/光照</text>
  <text x="155" y="279" text-anchor="middle"
        font-family="SimSun, SimHei, Microsoft YaHei, sans-serif" font-size="12" fill="white" opacity="0.92">- 数据增强</text>
  <rect x="393" y="88" width="210" height="250" rx="12" ry="12"
        fill="#000000" opacity="0.08" filter="url(#shadow)"/>
  <rect x="390" y="85" width="210" height="250" rx="12" ry="12"
        fill="#2196F3" opacity="0.95"/>
  <rect x="390" y="85" width="210" height="6" rx="3" ry="3" fill="white" opacity="0.25"/>
  <circle cx="495" cy="125" r="20" fill="white" opacity="0.2"/>
  <text x="495" y="132" text-anchor="middle"
        font-family="SimHei, Microsoft YaHei, sans-serif" font-size="20" font-weight="bold" fill="#FFFFFF">02</text>
  <text x="495" y="167" text-anchor="middle"
        font-family="SimHei, Microsoft YaHei, sans-serif" font-size="16" font-weight="bold" fill="#FFFFFF">人脸检测</text>
  <text x="495" y="187" text-anchor="middle"
        font-family="Arial, sans-serif" font-size="10" fill="#E3F2FD" font-style="italic">Face Detection</text>
  <line x1="415" y1="203" x2="575" y2="203"
        stroke="white" stroke-opacity="0.25" stroke-width="1"/>
  <text x="495" y="227" text-anchor="middle"
        font-family="SimSun, SimHei, Microsoft YaHei, sans-serif" font-size="12" fill="white" opacity="0.92">- Haar / HOG 特征</text>
  <text x="495" y="253" text-anchor="middle"
        font-family="SimSun, SimHei, Microsoft YaHei, sans-serif" font-size="12" fill="white" opacity="0.92">- MTCNN / YOLO</text>
  <text x="495" y="279" text-anchor="middle"
        font-family="SimSun, SimHei, Microsoft YaHei, sans-serif" font-size="12" fill="white" opacity="0.92">- 人脸区域裁剪</text>
  <rect x="733" y="88" width="210" height="250" rx="12" ry="12"
        fill="#000000" opacity="0.08" filter="url(#shadow)"/>
  <rect x="730" y="85" width="210" height="250" rx="12" ry="12"
        fill="#2196F3" opacity="0.95"/>
  <rect x="730" y="85" width="210" height="6" rx="3" ry="3" fill="white" opacity="0.25"/>
  <circle cx="835" cy="125" r="20" fill="white" opacity="0.2"/>
  <text x="835" y="132" text-anchor="middle"
        font-family="SimHei, Microsoft YaHei, sans-serif" font-size="20" font-weight="bold" fill="#FFFFFF">03</text>
  <text x="835" y="167" text-anchor="middle"
        font-family="SimHei, Microsoft YaHei, sans-serif" font-size="16" font-weight="bold" fill="#FFFFFF">数据归一化</text>
  <text x="835" y="187" text-anchor="middle"
        font-family="Arial, sans-serif" font-size="10" fill="#E3F2FD" font-style="italic">Normalization</text>
  <line x1="755" y1="203" x2="915" y2="203"
        stroke="white" stroke-opacity="0.25" stroke-width="1"/>
  <text x="835" y="227" text-anchor="middle"
        font-family="SimSun, SimHei, Microsoft YaHei, sans-serif" font-size="12" fill="white" opacity="0.92">- 灰度转换</text>
  <text x="835" y="253" text-anchor="middle"
        font-family="SimSun, SimHei, Microsoft YaHei, sans-serif" font-size="12" fill="white" opacity="0.92">- 尺寸统一</text>
  <text x="835" y="279" text-anchor="middle"
        font-family="SimSun, SimHei, Microsoft YaHei, sans-serif" font-size="12" fill="white" opacity="0.92">- 像素值归一化</text>
  <rect x="1073" y="88" width="210" height="250" rx="12" ry="12"
        fill="#000000" opacity="0.08" filter="url(#shadow)"/>
  <rect x="1070" y="85" width="210" height="250" rx="12" ry="12"
        fill="#2196F3" opacity="0.95"/>
  <rect x="1070" y="85" width="210" height="6" rx="3" ry="3" fill="white" opacity="0.25"/>
  <circle cx="1175" cy="125" r="20" fill="white" opacity="0.2"/>
  <text x="1175" y="132" text-anchor="middle"
        font-family="SimHei, Microsoft YaHei, sans-serif" font-size="20" font-weight="bold" fill="#FFFFFF">04</text>
  <text x="1175" y="167" text-anchor="middle"
        font-family="SimHei, Microsoft YaHei, sans-serif" font-size="16" font-weight="bold" fill="#FFFFFF">特征提取</text>
  <text x="1175" y="187" text-anchor="middle"
        font-family="Arial, sans-serif" font-size="10" fill="#E3F2FD" font-style="italic">Feature Extraction</text>
  <line x1="1095" y1="203" x2="1255" y2="203"
        stroke="white" stroke-opacity="0.25" stroke-width="1"/>
  <text x="1175" y="227" text-anchor="middle"
        font-family="SimSun, SimHei, Microsoft YaHei, sans-serif" font-size="12" fill="white" opacity="0.92">- CNN 特征</text>
  <text x="1175" y="253" text-anchor="middle"
        font-family="SimSun, SimHei, Microsoft YaHei, sans-serif" font-size="12" fill="white" opacity="0.92">- LBP / HOG</text>
  <text x="1175" y="279" text-anchor="middle"
        font-family="SimSun, SimHei, Microsoft YaHei, sans-serif" font-size="12" fill="white" opacity="0.92">- 降维 PCA</text>
  <rect x="1413" y="88" width="210" height="250" rx="12" ry="12"
        fill="#000000" opacity="0.08" filter="url(#shadow)"/>
  <rect x="1410" y="85" width="210" height="250" rx="12" ry="12"
        fill="#FF7043" opacity="0.95"/>
  <rect x="1410" y="85" width="210" height="6" rx="3" ry="3" fill="white" opacity="0.25"/>
  <circle cx="1515" cy="125" r="20" fill="white" opacity="0.2"/>
  <text x="1515" y="132" text-anchor="middle"
        font-family="SimHei, Microsoft YaHei, sans-serif" font-size="20" font-weight="bold" fill="#FFFFFF">05</text>
  <text x="1515" y="167" text-anchor="middle"
        font-family="SimHei, Microsoft YaHei, sans-serif" font-size="16" font-weight="bold" fill="#FFFFFF">多人脸分类器</text>
  <text x="1515" y="187" text-anchor="middle"
        font-family="Arial, sans-serif" font-size="10" fill="#E3F2FD" font-style="italic">Multi-Face Classifier</text>
  <line x1="1435" y1="203" x2="1595" y2="203"
        stroke="white" stroke-opacity="0.25" stroke-width="1"/>
  <text x="1515" y="227" text-anchor="middle"
        font-family="SimSun, SimHei, Microsoft YaHei, sans-serif" font-size="12" fill="white" opacity="0.92">- SVM / Softmax</text>
  <text x="1515" y="253" text-anchor="middle"
        font-family="SimSun, SimHei, Microsoft YaHei, sans-serif" font-size="12" fill="white" opacity="0.92">- 深度学习分类</text>
  <text x="1515" y="279" text-anchor="middle"
        font-family="SimSun, SimHei, Microsoft YaHei, sans-serif" font-size="12" fill="white" opacity="0.92">- 身份识别输出</text>
  <line x1="265" y1="210" x2="373" y2="210"
        stroke="#1976D2" stroke-width="2.5" marker-end="url(#arrowhead)"/>
  <rect x="287" y="184" width="76" height="22" rx="6" ry="6"
        fill="white" stroke="#1976D2" stroke-width="0.8"/>
  <text x="325" y="199" text-anchor="middle" font-family="SimHei, Microsoft YaHei, sans-serif"
        font-size="11" font-weight="bold" fill="#1976D2">人脸区域</text>
  <line x1="605" y1="210" x2="713" y2="210"
        stroke="#1976D2" stroke-width="2.5" marker-end="url(#arrowhead)"/>
  <rect x="627" y="184" width="76" height="22" rx="6" ry="6"
        fill="white" stroke="#1976D2" stroke-width="0.8"/>
  <text x="665" y="199" text-anchor="middle" font-family="SimHei, Microsoft YaHei, sans-serif"
        font-size="11" font-weight="bold" fill="#1976D2">裁剪对齐</text>
  <line x1="945" y1="210" x2="1053" y2="210"
        stroke="#1976D2" stroke-width="2.5" marker-end="url(#arrowhead)"/>
  <rect x="967" y="184" width="76" height="22" rx="6" ry="6"
        fill="white" stroke="#1976D2" stroke-width="0.8"/>
  <text x="1005" y="199" text-anchor="middle" font-family="SimHei, Microsoft YaHei, sans-serif"
        font-size="11" font-weight="bold" fill="#1976D2">特征向量</text>
  <line x1="1285" y1="210" x2="1393" y2="210"
        stroke="#1976D2" stroke-width="2.5" marker-end="url(#arrowhead)"/>
  <rect x="1307" y="184" width="76" height="22" rx="6" ry="6"
        fill="white" stroke="#1976D2" stroke-width="0.8"/>
  <text x="1345" y="199" text-anchor="middle" font-family="SimHei, Microsoft YaHei, sans-serif"
        font-size="11" font-weight="bold" fill="#1976D2">分类决策</text>
  <rect x="50" y="355" width="1300" height="36" rx="8" ry="8"
        fill="#F5F5F5" stroke="#BDBDBD" stroke-width="0.5"/>
  <text x="700" y="378" text-anchor="middle"
        font-family="SimSun, SimHei, Microsoft YaHei, sans-serif" font-size="11" fill="#757575">关键技术：Haar + MTCNN 人脸检测 → 直方图均衡化归一化 → CNN / PCA 特征提取 → SVM / Softmax 多分类</text>
</svg>